<svg xmlns="http://www.w3.org/2000/svg" width="1480" height="1370" viewBox="0 0 1480 1370">
<rect x="0" y="0" width="1480" height="1370" fill="#FFFFFF"/>
<path d="M 190.0 282 C 190.0 282, 190.0 420, 190.0 420" stroke="#73726c" stroke-width="1.2" fill="none"/>
<line x1="184.0" y1="278" x2="196.0" y2="278" stroke="#73726c" stroke-width="1.2"/>
<line x1="184.0" y1="274" x2="196.0" y2="274" stroke="#73726c" stroke-width="1.2"/>
<line x1="184.0" y1="424" x2="196.0" y2="424" stroke="#73726c" stroke-width="1.2"/>
<line x1="184.0" y1="428" x2="196.0" y2="428" stroke="#73726c" stroke-width="1.2"/>
<rect x="173.8" y="342.0" width="32.4" height="18" rx="4" fill="#FFFFFF" stroke="#B5D4F4" stroke-width="0.7"/><text x="190.0" y="352.0" text-anchor="middle" dominant-baseline="central" font-size="11" fill="#2C2C2A" font-family="Arial, sans-serif">has</text>
<path d="M 340 161.0 C 380.0 161.0, 380.0 148.0, 420 148.0" stroke="#73726c" stroke-width="1.2" fill="none"/>
<line x1="336" y1="155.0" x2="336" y2="167.0" stroke="#73726c" stroke-width="1.2"/>
<line x1="332" y1="155.0" x2="332" y2="167.0" stroke="#73726c" stroke-width="1.2"/>
<line x1="424" y1="142.0" x2="424" y2="154.0" stroke="#73726c" stroke-width="1.2"/>
<line x1="428" y1="142.0" x2="428" y2="154.0" stroke="#73726c" stroke-width="1.2"/>
<rect x="363.8" y="145.5" width="32.4" height="18" rx="4" fill="#FFFFFF" stroke="#B5D4F4" stroke-width="0.7"/><text x="380.0" y="155.5" text-anchor="middle" dominant-baseline="central" font-size="11" fill="#2C2C2A" font-family="Arial, sans-serif">has</text>
<path d="M 340 161.0 C 570.0 161.0, 570.0 502.0, 800 502.0" stroke="#73726c" stroke-width="1.2" fill="none"/>
<line x1="336" y1="155.0" x2="336" y2="167.0" stroke="#73726c" stroke-width="1.2"/>
<line x1="332" y1="155.0" x2="332" y2="167.0" stroke="#73726c" stroke-width="1.2"/>
<path d="M 800 502.0 l 10 -6 M 800 502.0 l 10 0 M 800 502.0 l 10 6" stroke="#73726c" stroke-width="1.2" fill="none"/>
<rect x="536.8" y="322.5" width="66.4" height="18" rx="4" fill="#FFFFFF" stroke="#B5D4F4" stroke-width="0.7"/><text x="570.0" y="332.5" text-anchor="middle" dominant-baseline="central" font-size="11" fill="#2C2C2A" font-family="Arial, sans-serif">receives</text>
<path d="M 800 135.0 C 760.0 135.0, 760.0 148.0, 720 148.0" stroke="#73726c" stroke-width="1.2" fill="none"/>
<line x1="804" y1="129.0" x2="804" y2="141.0" stroke="#73726c" stroke-width="1.2"/>
<line x1="808" y1="129.0" x2="808" y2="141.0" stroke="#73726c" stroke-width="1.2"/>
<path d="M 720 148.0 l -10 -6 M 720 148.0 l -10 0 M 720 148.0 l -10 6" stroke="#73726c" stroke-width="1.2" fill="none"/>
<rect x="730.2" y="132.5" width="59.6" height="18" rx="4" fill="#FFFFFF" stroke="#B5D4F4" stroke-width="0.7"/><text x="760.0" y="142.5" text-anchor="middle" dominant-baseline="central" font-size="11" fill="#2C2C2A" font-family="Arial, sans-serif">employs</text>
<path d="M 1140 83.0 C 930.0 83.0, 930.0 148.0, 720 148.0" stroke="#73726c" stroke-width="1.2" fill="none"/>
<line x1="1144" y1="77.0" x2="1144" y2="89.0" stroke="#73726c" stroke-width="1.2"/>
<line x1="1148" y1="77.0" x2="1148" y2="89.0" stroke="#73726c" stroke-width="1.2"/>
<path d="M 720 148.0 l -10 -6 M 720 148.0 l -10 0 M 720 148.0 l -10 6" stroke="#73726c" stroke-width="1.2" fill="none"/>
<rect x="890.0" y="106.5" width="80.0" height="18" rx="4" fill="#FFFFFF" stroke="#B5D4F4" stroke-width="0.7"/><text x="930.0" y="116.5" text-anchor="middle" dominant-baseline="central" font-size="11" fill="#2C2C2A" font-family="Arial, sans-serif">classifies</text>
<path d="M 570.0 256 C 570.0 256, 570.0 420, 570.0 420" stroke="#73726c" stroke-width="1.2" fill="none"/>
<line x1="564.0" y1="252" x2="576.0" y2="252" stroke="#73726c" stroke-width="1.2"/>
<line x1="564.0" y1="248" x2="576.0" y2="248" stroke="#73726c" stroke-width="1.2"/>
<path d="M 570.0 420 l -6 10 M 570.0 420 l 0 10 M 570.0 420 l 6 10" stroke="#73726c" stroke-width="1.2" fill="none"/>
<rect x="540.2" y="329.0" width="59.6" height="18" rx="4" fill="#FFFFFF" stroke="#B5D4F4" stroke-width="0.7"/><text x="570.0" y="339.0" text-anchor="middle" dominant-baseline="central" font-size="11" fill="#2C2C2A" font-family="Arial, sans-serif">defines</text>
<path d="M 570.0 610 C 570.0 610, 570.0 780, 570.0 780" stroke="#73726c" stroke-width="1.2" fill="none"/>
<line x1="564.0" y1="606" x2="576.0" y2="606" stroke="#73726c" stroke-width="1.2"/>
<line x1="564.0" y1="602" x2="576.0" y2="602" stroke="#73726c" stroke-width="1.2"/>
<path d="M 570.0 780 l -6 10 M 570.0 780 l 0 10 M 570.0 780 l 6 10" stroke="#73726c" stroke-width="1.2" fill="none"/>
<rect x="533.4" y="686.0" width="73.19999999999999" height="18" rx="4" fill="#FFFFFF" stroke="#B5D4F4" stroke-width="0.7"/><text x="570.0" y="696.0" text-anchor="middle" dominant-baseline="central" font-size="11" fill="#2C2C2A" font-family="Arial, sans-serif">generates</text>
<path d="M 190.0 610 C 190.0 610, 190.0 780, 190.0 780" stroke="#73726c" stroke-width="1.2" fill="none"/>
<line x1="184.0" y1="606" x2="196.0" y2="606" stroke="#73726c" stroke-width="1.2"/>
<line x1="184.0" y1="602" x2="196.0" y2="602" stroke="#73726c" stroke-width="1.2"/>
<path d="M 190.0 780 l -6 10 M 190.0 780 l 0 10 M 190.0 780 l 6 10" stroke="#73726c" stroke-width="1.2" fill="none"/>
<rect x="167.0" y="686.0" width="46.0" height="18" rx="4" fill="#FFFFFF" stroke="#B5D4F4" stroke-width="0.7"/><text x="190.0" y="696.0" text-anchor="middle" dominant-baseline="central" font-size="11" fill="#2C2C2A" font-family="Arial, sans-serif">books</text>
<path d="M 420 927.0 C 380.0 927.0, 380.0 862.0, 340 862.0" stroke="#73726c" stroke-width="1.2" fill="none"/>
<line x1="424" y1="921.0" x2="424" y2="933.0" stroke="#73726c" stroke-width="1.2"/>
<line x1="428" y1="921.0" x2="428" y2="933.0" stroke="#73726c" stroke-width="1.2"/>
<line x1="336" y1="856.0" x2="336" y2="868.0" stroke="#73726c" stroke-width="1.2"/>
<line x1="332" y1="856.0" x2="332" y2="868.0" stroke="#73726c" stroke-width="1.2"/>
<rect x="336.6" y="885.5" width="86.8" height="18" rx="4" fill="#FFFFFF" stroke="#B5D4F4" stroke-width="0.7"/><text x="380.0" y="895.5" text-anchor="middle" dominant-baseline="central" font-size="11" fill="#2C2C2A" font-family="Arial, sans-serif">reserved as</text>
<path d="M 190.0 944 C 190.0 944, 190.0 1140, 190.0 1140" stroke="#73726c" stroke-width="1.2" fill="none"/>
<line x1="184.0" y1="940" x2="196.0" y2="940" stroke="#73726c" stroke-width="1.2"/>
<line x1="184.0" y1="936" x2="196.0" y2="936" stroke="#73726c" stroke-width="1.2"/>
<line x1="184.0" y1="1144" x2="196.0" y2="1144" stroke="#73726c" stroke-width="1.2"/>
<line x1="184.0" y1="1148" x2="196.0" y2="1148" stroke="#73726c" stroke-width="1.2"/>
<rect x="160.2" y="1033.0" width="59.6" height="18" rx="4" fill="#FFFFFF" stroke="#B5D4F4" stroke-width="0.7"/><text x="190.0" y="1043.0" text-anchor="middle" dominant-baseline="central" font-size="11" fill="#2C2C2A" font-family="Arial, sans-serif">paid by</text>
<path d="M 340 862.0 C 380.0 862.0, 380.0 1209.0, 420 1209.0" stroke="#73726c" stroke-width="1.2" fill="none"/>
<line x1="336" y1="856.0" x2="336" y2="868.0" stroke="#73726c" stroke-width="1.2"/>
<line x1="332" y1="856.0" x2="332" y2="868.0" stroke="#73726c" stroke-width="1.2"/>
<line x1="424" y1="1203.0" x2="424" y2="1215.0" stroke="#73726c" stroke-width="1.2"/>
<line x1="428" y1="1203.0" x2="428" y2="1215.0" stroke="#73726c" stroke-width="1.2"/>
<rect x="346.8" y="1026.5" width="66.4" height="18" rx="4" fill="#FFFFFF" stroke="#B5D4F4" stroke-width="0.7"/><text x="380.0" y="1036.5" text-anchor="middle" dominant-baseline="central" font-size="11" fill="#2C2C2A" font-family="Arial, sans-serif">rated by</text>
<g>
<rect x="40" y="40" width="300" height="242" rx="8" fill="#FFFFFF" stroke="#B5D4F4" stroke-width="1.2"/>
<rect x="40" y="40" width="300" height="34" rx="8" fill="#0C447C"/>
<rect x="40" y="66" width="300" height="8" fill="#0C447C"/>
<text x="56" y="57.0" dominant-baseline="central" font-size="15" font-weight="500" fill="#E6F1FB" font-family="Arial, sans-serif">users</text>
<rect x="40" y="74" width="300" height="26" fill="#F1F6FB"/>
<text x="56" y="87.0" dominant-baseline="central" font-size="12" fill="#2C2C2A" font-family="Arial, sans-serif">PK</text>
<text x="96" y="87.0" dominant-baseline="central" font-size="12.5" font-weight="700" text-decoration="underline" fill="#0C447C" font-family="Arial, sans-serif">UniqueID</text>
<rect x="40" y="100" width="300" height="26" fill="#FFFFFF"/>
<text x="96" y="113.0" dominant-baseline="central" font-size="12.5" fill="#2C2C2A" font-family="Arial, sans-serif">email</text>
<rect x="40" y="126" width="300" height="26" fill="#F1F6FB"/>
<text x="96" y="139.0" dominant-baseline="central" font-size="12.5" fill="#2C2C2A" font-family="Arial, sans-serif">password_hash</text>
<rect x="40" y="152" width="300" height="26" fill="#FFFFFF"/>
<text x="96" y="165.0" dominant-baseline="central" font-size="12.5" fill="#2C2C2A" font-family="Arial, sans-serif">role</text>
<rect x="40" y="178" width="300" height="26" fill="#F1F6FB"/>
<text x="96" y="191.0" dominant-baseline="central" font-size="12.5" fill="#2C2C2A" font-family="Arial, sans-serif">is_verified</text>
<rect x="40" y="204" width="300" height="26" fill="#FFFFFF"/>
<text x="96" y="217.0" dominant-baseline="central" font-size="12.5" fill="#2C2C2A" font-family="Arial, sans-serif">created_at</text>
<rect x="40" y="230" width="300" height="26" fill="#F1F6FB"/>
<text x="96" y="243.0" dominant-baseline="central" font-size="12.5" fill="#2C2C2A" font-family="Arial, sans-serif">updated_at</text>
<rect x="40" y="256" width="300" height="26" fill="#FFFFFF"/>
<text x="96" y="269.0" dominant-baseline="central" font-size="12.5" fill="#2C2C2A" font-family="Arial, sans-serif">deleted_at</text>
<rect x="40" y="40" width="300" height="242" rx="8" fill="none" stroke="#B5D4F4" stroke-width="1.2"/>
</g>
<g>
<rect x="40" y="420" width="300" height="190" rx="8" fill="#FFFFFF" stroke="#B5D4F4" stroke-width="1.2"/>
<rect x="40" y="420" width="300" height="34" rx="8" fill="#0C447C"/>
<rect x="40" y="446" width="300" height="8" fill="#0C447C"/>
<text x="56" y="437.0" dominant-baseline="central" font-size="15" font-weight="500" fill="#E6F1FB" font-family="Arial, sans-serif">patients</text>
<rect x="40" y="454" width="300" height="26" fill="#F1F6FB"/>
<text x="56" y="467.0" dominant-baseline="central" font-size="12" fill="#2C2C2A" font-family="Arial, sans-serif">PK</text>
<text x="96" y="467.0" dominant-baseline="central" font-size="12.5" font-weight="700" text-decoration="underline" fill="#0C447C" font-family="Arial, sans-serif">UniqueID</text>
<rect x="40" y="480" width="300" height="26" fill="#FFFFFF"/>
<text x="96" y="493.0" dominant-baseline="central" font-size="12.5" fill="#2C2C2A" font-family="Arial, sans-serif">user_id</text>
<rect x="40" y="506" width="300" height="26" fill="#F1F6FB"/>
<text x="96" y="519.0" dominant-baseline="central" font-size="12.5" fill="#2C2C2A" font-family="Arial, sans-serif">full_name</text>
<rect x="40" y="532" width="300" height="26" fill="#FFFFFF"/>
<text x="96" y="545.0" dominant-baseline="central" font-size="12.5" fill="#2C2C2A" font-family="Arial, sans-serif">phone</text>
<rect x="40" y="558" width="300" height="26" fill="#F1F6FB"/>
<text x="96" y="571.0" dominant-baseline="central" font-size="12.5" fill="#2C2C2A" font-family="Arial, sans-serif">gender</text>
<rect x="40" y="584" width="300" height="26" fill="#FFFFFF"/>
<text x="96" y="597.0" dominant-baseline="central" font-size="12.5" fill="#2C2C2A" font-family="Arial, sans-serif">birth_date</text>
<rect x="40" y="420" width="300" height="190" rx="8" fill="none" stroke="#B5D4F4" stroke-width="1.2"/>
</g>
<g>
<rect x="420" y="40" width="300" height="216" rx="8" fill="#FFFFFF" stroke="#B5D4F4" stroke-width="1.2"/>
<rect x="420" y="40" width="300" height="34" rx="8" fill="#0C447C"/>
<rect x="420" y="66" width="300" height="8" fill="#0C447C"/>
<text x="436" y="57.0" dominant-baseline="central" font-size="15" font-weight="500" fill="#E6F1FB" font-family="Arial, sans-serif">doctors</text>
<rect x="420" y="74" width="300" height="26" fill="#F1F6FB"/>
<text x="436" y="87.0" dominant-baseline="central" font-size="12" fill="#2C2C2A" font-family="Arial, sans-serif">PK</text>
<text x="476" y="87.0" dominant-baseline="central" font-size="12.5" font-weight="700" text-decoration="underline" fill="#0C447C" font-family="Arial, sans-serif">UniqueID</text>
<rect x="420" y="100" width="300" height="26" fill="#FFFFFF"/>
<text x="476" y="113.0" dominant-baseline="central" font-size="12.5" fill="#2C2C2A" font-family="Arial, sans-serif">user_id</text>
<rect x="420" y="126" width="300" height="26" fill="#F1F6FB"/>
<text x="476" y="139.0" dominant-baseline="central" font-size="12.5" fill="#2C2C2A" font-family="Arial, sans-serif">clinic_id</text>
<rect x="420" y="152" width="300" height="26" fill="#FFFFFF"/>
<text x="476" y="165.0" dominant-baseline="central" font-size="12.5" fill="#2C2C2A" font-family="Arial, sans-serif">specialty_id</text>
<rect x="420" y="178" width="300" height="26" fill="#F1F6FB"/>
<text x="476" y="191.0" dominant-baseline="central" font-size="12.5" fill="#2C2C2A" font-family="Arial, sans-serif">consultation_fee</text>
<rect x="420" y="204" width="300" height="26" fill="#FFFFFF"/>
<text x="476" y="217.0" dominant-baseline="central" font-size="12.5" fill="#2C2C2A" font-family="Arial, sans-serif">bio</text>
<rect x="420" y="230" width="300" height="26" fill="#F1F6FB"/>
<text x="476" y="243.0" dominant-baseline="central" font-size="12.5" fill="#2C2C2A" font-family="Arial, sans-serif">experience_years</text>
<rect x="420" y="40" width="300" height="216" rx="8" fill="none" stroke="#B5D4F4" stroke-width="1.2"/>
</g>
<g>
<rect x="800" y="40" width="300" height="190" rx="8" fill="#FFFFFF" stroke="#B5D4F4" stroke-width="1.2"/>
<rect x="800" y="40" width="300" height="34" rx="8" fill="#0C447C"/>
<rect x="800" y="66" width="300" height="8" fill="#0C447C"/>
<text x="816" y="57.0" dominant-baseline="central" font-size="15" font-weight="500" fill="#E6F1FB" font-family="Arial, sans-serif">clinics</text>
<rect x="800" y="74" width="300" height="26" fill="#F1F6FB"/>
<text x="816" y="87.0" dominant-baseline="central" font-size="12" fill="#2C2C2A" font-family="Arial, sans-serif">PK</text>
<text x="856" y="87.0" dominant-baseline="central" font-size="12.5" font-weight="700" text-decoration="underline" fill="#0C447C" font-family="Arial, sans-serif">UniqueID</text>
<rect x="800" y="100" width="300" height="26" fill="#FFFFFF"/>
<text x="856" y="113.0" dominant-baseline="central" font-size="12.5" fill="#2C2C2A" font-family="Arial, sans-serif">name</text>
<rect x="800" y="126" width="300" height="26" fill="#F1F6FB"/>
<text x="856" y="139.0" dominant-baseline="central" font-size="12.5" fill="#2C2C2A" font-family="Arial, sans-serif">phone</text>
<rect x="800" y="152" width="300" height="26" fill="#FFFFFF"/>
<text x="856" y="165.0" dominant-baseline="central" font-size="12.5" fill="#2C2C2A" font-family="Arial, sans-serif">address</text>
<rect x="800" y="178" width="300" height="26" fill="#F1F6FB"/>
<text x="856" y="191.0" dominant-baseline="central" font-size="12.5" fill="#2C2C2A" font-family="Arial, sans-serif">city</text>
<rect x="800" y="204" width="300" height="26" fill="#FFFFFF"/>
<text x="856" y="217.0" dominant-baseline="central" font-size="12.5" fill="#2C2C2A" font-family="Arial, sans-serif">description</text>
<rect x="800" y="40" width="300" height="190" rx="8" fill="none" stroke="#B5D4F4" stroke-width="1.2"/>
</g>
<g>
<rect x="1140" y="40" width="300" height="86" rx="8" fill="#FFFFFF" stroke="#B5D4F4" stroke-width="1.2"/>
<rect x="1140" y="40" width="300" height="34" rx="8" fill="#0C447C"/>
<rect x="1140" y="66" width="300" height="8" fill="#0C447C"/>
<text x="1156" y="57.0" dominant-baseline="central" font-size="15" font-weight="500" fill="#E6F1FB" font-family="Arial, sans-serif">specialties</text>
<rect x="1140" y="74" width="300" height="26" fill="#F1F6FB"/>
<text x="1156" y="87.0" dominant-baseline="central" font-size="12" fill="#2C2C2A" font-family="Arial, sans-serif">PK</text>
<text x="1196" y="87.0" dominant-baseline="central" font-size="12.5" font-weight="700" text-decoration="underline" fill="#0C447C" font-family="Arial, sans-serif">UniqueID</text>
<rect x="1140" y="100" width="300" height="26" fill="#FFFFFF"/>
<text x="1196" y="113.0" dominant-baseline="central" font-size="12.5" fill="#2C2C2A" font-family="Arial, sans-serif">name</text>
<rect x="1140" y="40" width="300" height="86" rx="8" fill="none" stroke="#B5D4F4" stroke-width="1.2"/>
</g>
<g>
<rect x="420" y="420" width="300" height="190" rx="8" fill="#FFFFFF" stroke="#B5D4F4" stroke-width="1.2"/>
<rect x="420" y="420" width="300" height="34" rx="8" fill="#0C447C"/>
<rect x="420" y="446" width="300" height="8" fill="#0C447C"/>
<text x="436" y="437.0" dominant-baseline="central" font-size="15" font-weight="500" fill="#E6F1FB" font-family="Arial, sans-serif">doctor_schedules</text>
<rect x="420" y="454" width="300" height="26" fill="#F1F6FB"/>
<text x="436" y="467.0" dominant-baseline="central" font-size="12" fill="#2C2C2A" font-family="Arial, sans-serif">PK</text>
<text x="476" y="467.0" dominant-baseline="central" font-size="12.5" font-weight="700" text-decoration="underline" fill="#0C447C" font-family="Arial, sans-serif">UniqueID</text>
<rect x="420" y="480" width="300" height="26" fill="#FFFFFF"/>
<text x="476" y="493.0" dominant-baseline="central" font-size="12.5" fill="#2C2C2A" font-family="Arial, sans-serif">doctor_id</text>
<rect x="420" y="506" width="300" height="26" fill="#F1F6FB"/>
<text x="476" y="519.0" dominant-baseline="central" font-size="12.5" fill="#2C2C2A" font-family="Arial, sans-serif">weekday</text>
<rect x="420" y="532" width="300" height="26" fill="#FFFFFF"/>
<text x="476" y="545.0" dominant-baseline="central" font-size="12.5" fill="#2C2C2A" font-family="Arial, sans-serif">start_time</text>
<rect x="420" y="558" width="300" height="26" fill="#F1F6FB"/>
<text x="476" y="571.0" dominant-baseline="central" font-size="12.5" fill="#2C2C2A" font-family="Arial, sans-serif">end_time</text>
<rect x="420" y="584" width="300" height="26" fill="#FFFFFF"/>
<text x="476" y="597.0" dominant-baseline="central" font-size="12.5" fill="#2C2C2A" font-family="Arial, sans-serif">slot_duration</text>
<rect x="420" y="420" width="300" height="190" rx="8" fill="none" stroke="#B5D4F4" stroke-width="1.2"/>
</g>
<g>
<rect x="420" y="780" width="300" height="294" rx="8" fill="#FFFFFF" stroke="#B5D4F4" stroke-width="1.2"/>
<rect x="420" y="780" width="300" height="34" rx="8" fill="#0C447C"/>
<rect x="420" y="806" width="300" height="8" fill="#0C447C"/>
<text x="436" y="797.0" dominant-baseline="central" font-size="15" font-weight="500" fill="#E6F1FB" font-family="Arial, sans-serif">appointment_slots</text>
<rect x="420" y="814" width="300" height="26" fill="#F1F6FB"/>
<text x="436" y="827.0" dominant-baseline="central" font-size="12" fill="#2C2C2A" font-family="Arial, sans-serif">PK</text>
<text x="476" y="827.0" dominant-baseline="central" font-size="12.5" font-weight="700" text-decoration="underline" fill="#0C447C" font-family="Arial, sans-serif">UniqueID</text>
<rect x="420" y="840" width="300" height="26" fill="#FFFFFF"/>
<text x="476" y="853.0" dominant-baseline="central" font-size="12.5" fill="#2C2C2A" font-family="Arial, sans-serif">doctor_id</text>
<rect x="420" y="866" width="300" height="26" fill="#F1F6FB"/>
<text x="476" y="879.0" dominant-baseline="central" font-size="12.5" fill="#2C2C2A" font-family="Arial, sans-serif">doctor_schedule_id</text>
<rect x="420" y="892" width="300" height="26" fill="#FFFFFF"/>
<text x="476" y="905.0" dominant-baseline="central" font-size="12.5" fill="#2C2C2A" font-family="Arial, sans-serif">slot_date</text>
<rect x="420" y="918" width="300" height="26" fill="#F1F6FB"/>
<text x="476" y="931.0" dominant-baseline="central" font-size="12.5" fill="#2C2C2A" font-family="Arial, sans-serif">start_time</text>
<rect x="420" y="944" width="300" height="26" fill="#FFFFFF"/>
<text x="476" y="957.0" dominant-baseline="central" font-size="12.5" fill="#2C2C2A" font-family="Arial, sans-serif">end_time</text>
<rect x="420" y="970" width="300" height="26" fill="#F1F6FB"/>
<text x="476" y="983.0" dominant-baseline="central" font-size="12.5" fill="#2C2C2A" font-family="Arial, sans-serif">status</text>
<rect x="420" y="996" width="300" height="26" fill="#FFFFFF"/>
<text x="476" y="1009.0" dominant-baseline="central" font-size="12.5" fill="#2C2C2A" font-family="Arial, sans-serif">created_at</text>
<rect x="420" y="1022" width="300" height="26" fill="#F1F6FB"/>
<text x="476" y="1035.0" dominant-baseline="central" font-size="12.5" fill="#2C2C2A" font-family="Arial, sans-serif">updated_at</text>
<rect x="420" y="1048" width="300" height="26" fill="#FFFFFF"/>
<text x="476" y="1061.0" dominant-baseline="central" font-size="12.5" fill="#2C2C2A" font-family="Arial, sans-serif">deleted_at</text>
<rect x="420" y="780" width="300" height="294" rx="8" fill="none" stroke="#B5D4F4" stroke-width="1.2"/>
</g>
<g>
<rect x="40" y="780" width="300" height="164" rx="8" fill="#FFFFFF" stroke="#B5D4F4" stroke-width="1.2"/>
<rect x="40" y="780" width="300" height="34" rx="8" fill="#0C447C"/>
<rect x="40" y="806" width="300" height="8" fill="#0C447C"/>
<text x="56" y="797.0" dominant-baseline="central" font-size="15" font-weight="500" fill="#E6F1FB" font-family="Arial, sans-serif">appointments</text>
<rect x="40" y="814" width="300" height="26" fill="#F1F6FB"/>
<text x="56" y="827.0" dominant-baseline="central" font-size="12" fill="#2C2C2A" font-family="Arial, sans-serif">PK</text>
<text x="96" y="827.0" dominant-baseline="central" font-size="12.5" font-weight="700" text-decoration="underline" fill="#0C447C" font-family="Arial, sans-serif">UniqueID</text>
<rect x="40" y="840" width="300" height="26" fill="#FFFFFF"/>
<text x="96" y="853.0" dominant-baseline="central" font-size="12.5" fill="#2C2C2A" font-family="Arial, sans-serif">patient_id</text>
<rect x="40" y="866" width="300" height="26" fill="#F1F6FB"/>
<text x="96" y="879.0" dominant-baseline="central" font-size="12.5" fill="#2C2C2A" font-family="Arial, sans-serif">slot_id</text>
<rect x="40" y="892" width="300" height="26" fill="#FFFFFF"/>
<text x="96" y="905.0" dominant-baseline="central" font-size="12.5" fill="#2C2C2A" font-family="Arial, sans-serif">status</text>
<rect x="40" y="918" width="300" height="26" fill="#F1F6FB"/>
<text x="96" y="931.0" dominant-baseline="central" font-size="12.5" fill="#2C2C2A" font-family="Arial, sans-serif">notes</text>
<rect x="40" y="780" width="300" height="164" rx="8" fill="none" stroke="#B5D4F4" stroke-width="1.2"/>
</g>
<g>
<rect x="40" y="1140" width="300" height="190" rx="8" fill="#FFFFFF" stroke="#B5D4F4" stroke-width="1.2"/>
<rect x="40" y="1140" width="300" height="34" rx="8" fill="#0C447C"/>
<rect x="40" y="1166" width="300" height="8" fill="#0C447C"/>
<text x="56" y="1157.0" dominant-baseline="central" font-size="15" font-weight="500" fill="#E6F1FB" font-family="Arial, sans-serif">payments</text>
<rect x="40" y="1174" width="300" height="26" fill="#F1F6FB"/>
<text x="56" y="1187.0" dominant-baseline="central" font-size="12" fill="#2C2C2A" font-family="Arial, sans-serif">PK</text>
<text x="96" y="1187.0" dominant-baseline="central" font-size="12.5" font-weight="700" text-decoration="underline" fill="#0C447C" font-family="Arial, sans-serif">UniqueID</text>
<rect x="40" y="1200" width="300" height="26" fill="#FFFFFF"/>
<text x="96" y="1213.0" dominant-baseline="central" font-size="12.5" fill="#2C2C2A" font-family="Arial, sans-serif">appointment_id</text>
<rect x="40" y="1226" width="300" height="26" fill="#F1F6FB"/>
<text x="96" y="1239.0" dominant-baseline="central" font-size="12.5" fill="#2C2C2A" font-family="Arial, sans-serif">amount</text>
<rect x="40" y="1252" width="300" height="26" fill="#FFFFFF"/>
<text x="96" y="1265.0" dominant-baseline="central" font-size="12.5" fill="#2C2C2A" font-family="Arial, sans-serif">method</text>
<rect x="40" y="1278" width="300" height="26" fill="#F1F6FB"/>
<text x="96" y="1291.0" dominant-baseline="central" font-size="12.5" fill="#2C2C2A" font-family="Arial, sans-serif">status</text>
<rect x="40" y="1304" width="300" height="26" fill="#FFFFFF"/>
<text x="96" y="1317.0" dominant-baseline="central" font-size="12.5" fill="#2C2C2A" font-family="Arial, sans-serif">transaction_reference</text>
<rect x="40" y="1140" width="300" height="190" rx="8" fill="none" stroke="#B5D4F4" stroke-width="1.2"/>
</g>
<g>
<rect x="800" y="420" width="300" height="164" rx="8" fill="#FFFFFF" stroke="#B5D4F4" stroke-width="1.2"/>
<rect x="800" y="420" width="300" height="34" rx="8" fill="#0C447C"/>
<rect x="800" y="446" width="300" height="8" fill="#0C447C"/>
<text x="816" y="437.0" dominant-baseline="central" font-size="15" font-weight="500" fill="#E6F1FB" font-family="Arial, sans-serif">notifications</text>
<rect x="800" y="454" width="300" height="26" fill="#F1F6FB"/>
<text x="816" y="467.0" dominant-baseline="central" font-size="12" fill="#2C2C2A" font-family="Arial, sans-serif">PK</text>
<text x="856" y="467.0" dominant-baseline="central" font-size="12.5" font-weight="700" text-decoration="underline" fill="#0C447C" font-family="Arial, sans-serif">UniqueID</text>
<rect x="800" y="480" width="300" height="26" fill="#FFFFFF"/>
<text x="856" y="493.0" dominant-baseline="central" font-size="12.5" fill="#2C2C2A" font-family="Arial, sans-serif">user_id</text>
<rect x="800" y="506" width="300" height="26" fill="#F1F6FB"/>
<text x="856" y="519.0" dominant-baseline="central" font-size="12.5" fill="#2C2C2A" font-family="Arial, sans-serif">title</text>
<rect x="800" y="532" width="300" height="26" fill="#FFFFFF"/>
<text x="856" y="545.0" dominant-baseline="central" font-size="12.5" fill="#2C2C2A" font-family="Arial, sans-serif">message</text>
<rect x="800" y="558" width="300" height="26" fill="#F1F6FB"/>
<text x="856" y="571.0" dominant-baseline="central" font-size="12.5" fill="#2C2C2A" font-family="Arial, sans-serif">is_read</text>
<rect x="800" y="420" width="300" height="164" rx="8" fill="none" stroke="#B5D4F4" stroke-width="1.2"/>
</g>
<g>
<rect x="420" y="1140" width="300" height="138" rx="8" fill="#FFFFFF" stroke="#B5D4F4" stroke-width="1.2"/>
<rect x="420" y="1140" width="300" height="34" rx="8" fill="#0C447C"/>
<rect x="420" y="1166" width="300" height="8" fill="#0C447C"/>
<text x="436" y="1157.0" dominant-baseline="central" font-size="15" font-weight="500" fill="#E6F1FB" font-family="Arial, sans-serif">reviews</text>
<rect x="420" y="1174" width="300" height="26" fill="#F1F6FB"/>
<text x="436" y="1187.0" dominant-baseline="central" font-size="12" fill="#2C2C2A" font-family="Arial, sans-serif">PK</text>
<text x="476" y="1187.0" dominant-baseline="central" font-size="12.5" font-weight="700" text-decoration="underline" fill="#0C447C" font-family="Arial, sans-serif">UniqueID</text>
<rect x="420" y="1200" width="300" height="26" fill="#FFFFFF"/>
<text x="476" y="1213.0" dominant-baseline="central" font-size="12.5" fill="#2C2C2A" font-family="Arial, sans-serif">appointment_id</text>
<rect x="420" y="1226" width="300" height="26" fill="#F1F6FB"/>
<text x="476" y="1239.0" dominant-baseline="central" font-size="12.5" fill="#2C2C2A" font-family="Arial, sans-serif">rating</text>
<rect x="420" y="1252" width="300" height="26" fill="#FFFFFF"/>
<text x="476" y="1265.0" dominant-baseline="central" font-size="12.5" fill="#2C2C2A" font-family="Arial, sans-serif">comment</text>
<rect x="420" y="1140" width="300" height="138" rx="8" fill="none" stroke="#B5D4F4" stroke-width="1.2"/>
</g>
</svg>